<!-- <svg version="1.1" id="Layer_1" xmlns="http://www.w3.org/2000/svg" xmlns:xlink="http://www.w3.org/1999/xlink" x="0" y="0"
	height="160" width="100" viewBox="0 0 500 50" enable-background="none"
	fill="none" > -->

	<svg version="1.1" id="Layer_1" xmlns="http://www.w3.org/2000/svg" xmlns:xlink="http://www.w3.org/1999/xlink" x="0px" y="0px"
	height="150" width="180" viewBox="0 0 450 430" enable-background="none" xml:space="preserve" left="0">

<!-- <svg width="111" height="48" viewBox="0 0 111 48" fill="none" xmlns="http://www.w3.org/2000/svg"> -->
<path fill="none" opacity="1.000000" stroke="none" 
	d="
M417.000000,481.000000 
	C278.032043,481.000000 139.564117,481.000000 1.048083,481.000000 
	C1.048083,321.069092 1.048083,161.138184 1.048083,1.103629 
	C200.884583,1.103629 400.769226,1.103629 600.826904,1.103629 
	C600.826904,160.999847 600.826904,320.999908 600.826904,481.000000 
	C539.804871,481.000000 478.652435,481.000000 417.000000,481.000000 
M174.315308,339.558594 
	C174.470184,339.453522 174.536621,339.307892 174.834824,338.853943 
	C174.834824,338.853943 174.978546,338.462036 175.672974,338.382599 
	C178.804230,334.249146 178.970917,325.043213 175.693039,320.307526 
	C173.671921,318.943939 171.762970,316.664093 169.607208,316.400177 
	C164.517960,315.777039 159.301758,315.934296 154.159576,316.205658 
	C153.065674,316.263397 151.186920,318.130737 151.163269,319.197449 
	C150.935089,329.486938 151.026474,339.783447 151.026474,350.141266 
	C153.471970,350.141266 155.527832,350.141266 157.698105,350.141266 
	C157.915939,347.777527 158.110046,345.671051 158.352997,343.034851 
	C161.352814,343.034851 164.201660,343.379578 166.917938,342.927582 
	C169.156662,342.555115 171.238327,341.238922 173.313980,340.683441 
	C173.408218,340.481140 173.502457,340.278839 173.898544,339.906647 
	C173.898544,339.906647 174.065979,339.603394 174.315308,339.558594 
M437.987366,341.170624 
	C437.981628,334.405090 438.087646,327.636169 437.884583,320.876556 
	C437.838867,319.354279 436.714935,317.864441 435.229645,316.123352 
	C431.225922,315.317047 429.632812,316.554199 429.834991,321.002808 
	C430.260010,330.355927 430.098480,339.735718 430.464539,349.815125 
	C438.075775,349.899902 445.686951,349.996460 453.298370,350.018188 
	C453.553436,350.018921 453.810669,349.263214 454.173279,348.546478 
	C454.173279,348.546478 454.044556,348.241333 454.396393,347.854645 
	C454.250244,347.264862 454.104095,346.675079 453.935608,345.344879 
	C453.952667,343.917572 454.102142,342.475830 453.948334,341.067169 
	C453.803467,339.740204 453.339081,338.448120 453.015289,337.140625 
	C451.154846,337.671112 448.316833,337.625763 447.605591,338.833191 
	C444.745575,343.688538 443.566437,344.342896 437.987366,341.170624 
M291.407196,316.303040 
	C285.317017,316.204071 279.225677,316.148621 273.137115,315.988190 
	C269.975616,315.904907 269.265076,317.643555 269.212921,320.395142 
	C269.155304,323.433136 270.737152,324.099915 273.295868,323.844086 
	C275.264374,323.647278 277.265045,323.639954 279.201447,323.279755 
	C284.451630,322.303101 286.259247,323.878113 285.878754,329.267120 
	C285.645935,332.564575 285.373749,335.861633 285.249298,339.163788 
	C285.096161,343.226318 282.403107,344.018677 279.141998,344.016174 
	C275.547546,344.013428 274.602356,341.863098 275.186859,338.710266 
	C275.686829,336.013519 275.275818,334.042328 271.934906,334.055084 
	C268.970001,334.066406 267.178345,335.344452 267.180603,338.490387 
	C267.183777,342.851379 268.304260,346.676880 272.813324,349.576019 
	C277.923981,351.707703 282.968933,352.182678 288.229980,348.408813 
	C288.847717,347.774475 289.465485,347.140167 290.802551,346.556458 
	C291.531372,345.240814 292.836365,343.950043 292.894409,342.605438 
	C293.241272,334.573334 293.330597,326.529114 293.394318,318.488037 
	C293.398956,317.903168 292.517456,317.311249 291.407196,316.303040 
M310.629089,350.438324 
	C315.363312,350.901947 320.207397,352.462952 325.177368,348.877014 
	C326.668365,345.706909 329.045929,342.647766 329.459564,339.342834 
	C330.239746,333.109528 329.765533,326.728851 330.064056,320.421326 
	C330.198669,317.576508 328.854492,316.287964 326.402313,316.214661 
	C320.753876,316.045868 315.076355,315.871704 309.460693,316.322662 
	C308.175385,316.425903 306.534515,318.882416 306.045197,320.546356 
	C305.288452,323.119751 307.101990,324.030304 309.542786,323.843719 
	C312.349243,323.629181 315.166565,323.545807 317.968903,323.292053 
	C320.578613,323.055756 322.155273,323.816650 322.115417,326.756683 
	C322.056854,331.081116 322.294159,335.421143 321.981934,339.723816 
	C321.883240,341.083801 320.677765,343.097778 319.536682,343.475037 
	C317.840576,344.035736 315.175049,344.089294 313.993011,343.090851 
	C312.833740,342.111572 313.368591,339.356873 312.499542,337.735352 
	C311.719910,336.280640 310.085175,334.422150 308.749512,334.357544 
	C307.259857,334.285461 304.770844,335.717865 304.304504,337.050842 
	C302.537750,342.101013 305.009613,347.062683 310.629089,350.438324 
M251.422714,349.365051 
	C256.506256,346.236145 257.305573,341.457642 256.847870,336.001648 
	C256.557190,332.536560 256.950623,329.017120 256.726288,325.542145 
	C256.614044,323.803314 256.211212,321.823364 255.240067,320.445831 
	C251.475525,315.106079 236.970688,314.162140 231.937576,318.403778 
	C226.012497,323.397156 227.649734,330.056793 227.102951,336.391296 
	C226.571396,342.549408 228.496216,347.030029 234.609634,350.479492 
	C240.018707,350.200012 245.427795,349.920563 251.422714,349.365051 
M300.353210,81.192886 
	C297.187866,84.368065 294.030884,87.551628 290.855835,90.717110 
	C260.982483,120.500580 231.094269,150.269196 201.287842,180.119476 
	C200.401932,181.006683 200.365707,182.742294 200.132812,184.719254 
	C213.884659,198.669098 227.605331,212.649857 241.398346,226.558884 
	C252.161240,237.412277 262.965942,248.225250 273.841766,258.965363 
	C282.802032,267.813812 291.893921,276.529022 301.393829,285.760590 
	C302.574524,285.287872 304.050262,285.116608 304.889648,284.295105 
	C312.210663,277.130341 319.434814,269.866150 326.655212,262.599182 
	C343.087555,246.060898 359.476257,229.479187 375.932861,212.965134 
	C384.817108,204.049850 393.855316,195.287384 402.683960,186.318069 
	C403.835358,185.148285 407.085022,183.837723 403.382568,180.880585 
	C401.143677,178.690872 398.864990,176.540161 396.672607,174.304840 
	C386.215118,163.642380 375.863708,152.874466 365.314941,142.303345 
	C355.222900,132.189957 344.856964,122.350067 334.754211,112.247185 
	C324.789246,102.282059 315.042023,92.099190 305.071655,82.139595 
	C304.191833,81.260727 302.367157,81.327736 300.353210,81.192886 
M370.132477,335.230743 
	C369.689301,337.117035 369.246094,339.003296 368.802917,340.889587 
	C368.342468,340.844269 367.882019,340.798950 367.421570,340.753632 
	C366.899506,339.237244 366.189972,337.756348 365.894409,336.197052 
	C365.277130,332.940460 364.865417,329.644379 364.394196,326.360931 
	C364.057037,324.011963 363.858856,321.726135 360.575317,321.570435 
	C357.412537,321.420441 357.162170,323.575439 356.840210,325.742798 
	C356.525452,327.861694 356.387390,330.006897 356.069366,332.125183 
	C355.606415,335.209229 355.051758,338.279541 354.536163,341.355682 
	C353.942444,341.323883 353.348694,341.292084 352.754944,341.260315 
	C347.611847,333.730988 352.250671,324.090240 348.049622,316.229156 
	C347.265991,316.154358 346.448029,316.071350 345.629150,315.998962 
	C341.704742,315.651978 339.508148,315.929016 340.728882,321.314850 
	C342.584351,329.501190 343.057983,337.993652 344.389343,346.312714 
	C344.614685,347.720490 346.046234,349.832886 347.187317,350.023712 
	C350.282654,350.541229 353.521362,350.201233 356.080566,350.201233 
	C357.511810,345.214325 358.719879,341.005157 359.927948,336.795959 
	C360.518799,336.891449 361.109680,336.986938 361.700531,337.082428 
	C362.205109,339.776733 363.007446,342.457001 363.134979,345.169006 
	C363.277832,348.206146 363.874207,350.361511 367.438873,350.511932 
	C371.175629,350.669617 374.984283,350.825989 375.859344,346.019958 
	C377.423096,337.431458 378.735229,328.797333 380.190002,320.188629 
	C380.704712,317.142853 379.436310,316.050323 376.424011,315.932373 
	C372.681122,315.785736 371.879883,318.367340 371.481018,320.994965 
	C370.811218,325.407715 370.562592,329.884369 370.132477,335.230743 
M188.379089,320.113312 
	C188.379089,330.041595 188.379089,339.969910 188.379089,350.009094 
	C190.104187,350.009094 191.232941,350.009094 192.361694,350.009094 
	C193.678558,350.009094 194.995407,350.009094 196.177444,350.009094 
	C196.323380,348.509155 196.954788,346.897919 196.504745,345.689362 
	C195.361603,342.619354 196.346451,340.316559 199.279221,340.460236 
	C201.579559,340.572968 205.154205,342.192993 205.782715,343.980316 
	C208.069397,350.482880 208.076981,350.855347 217.388596,349.478455 
	C216.289322,347.461365 214.844452,345.742004 214.430786,343.802643 
	C213.968796,341.636902 213.566040,338.634277 214.672699,337.111511 
	C218.094818,332.402679 217.543060,327.472504 215.603577,322.985565 
	C213.459656,318.025665 209.370941,315.087616 203.237411,316.019928 
	C199.996048,316.512604 196.557114,315.691711 193.310059,316.166290 
	C191.577347,316.419617 190.062943,318.166504 188.379089,320.113312 
M402.616730,316.260132 
	C399.942810,316.209717 396.787567,314.826721 395.832855,319.095825 
	C393.576843,329.183777 391.230988,339.251678 388.817322,349.782135 
	C391.938171,349.782135 394.505676,349.782135 397.002747,349.782135 
	C397.420380,348.279572 397.407227,346.057831 398.273987,345.633545 
	C400.880920,344.357391 403.790588,343.522949 406.669067,343.076874 
	C407.639191,342.926514 409.821594,344.443848 409.830841,345.218384 
	C409.907562,351.638489 413.788727,350.719757 418.396179,349.714325 
	C418.156158,348.033508 418.037994,346.420197 417.683502,344.860657 
	C416.188049,338.281372 414.028900,331.789520 413.227722,325.131500 
	C412.154266,316.210571 412.274139,315.859589 402.616730,316.260132 
z"/>
<path fill="#BE76E8" opacity="1.000000" stroke="none" 
	d="
M403.922882,181.325134 
	C407.085022,183.837723 403.835358,185.148285 402.683960,186.318069 
	C393.855316,195.287384 384.817108,204.049850 375.932861,212.965134 
	C359.476257,229.479187 343.087555,246.060898 326.655212,262.599182 
	C319.434814,269.866150 312.210663,277.130341 304.889648,284.295105 
	C304.050262,285.116608 302.574524,285.287872 301.184021,285.037476 
	C300.984039,270.540405 300.993866,256.766449 301.370514,243.006180 
	C303.952423,240.944458 306.208313,238.910645 308.375671,236.786484 
	C318.594666,226.771057 328.767517,216.708405 339.012024,206.719223 
	C340.986481,204.793945 341.591370,203.222992 339.526459,200.807541 
	C337.140930,198.016953 338.259369,195.221085 341.664948,195.802750 
	C347.004272,196.714706 348.252289,192.115875 351.180664,189.894974 
	C351.803650,189.422485 351.332520,186.918015 350.750427,185.627045 
	C350.259644,184.538620 348.975555,183.686127 347.866180,183.025421 
	C345.941620,181.879227 342.843231,179.597122 342.061646,180.191330 
	C339.109467,182.435699 335.321014,184.373795 335.211243,189.142227 
	C335.161438,191.305389 334.655090,193.971848 333.315216,195.493958 
	C329.484283,199.845932 324.787231,203.447311 321.051758,207.868530 
	C316.569244,213.173874 308.626678,216.141266 308.925964,224.944214 
	C308.940125,225.360977 307.144684,225.839264 306.429688,225.903870 
	C307.254791,223.105515 307.629028,220.545380 304.289581,220.195404 
	C302.987671,220.058960 301.007172,220.985718 300.299896,222.061890 
	C299.545959,223.209061 299.932129,225.105530 299.820557,226.674881 
	C301.962128,226.528015 304.103699,226.381165 306.366577,226.653610 
	C303.015259,233.112152 299.497559,232.169327 293.613190,222.697128 
	C297.202759,220.480515 300.791321,218.181168 304.464355,216.025833 
	C306.890686,214.602051 309.863281,213.840927 311.850555,211.988464 
	C317.412811,206.803528 322.466034,201.075851 327.964111,195.817474 
	C331.530945,192.406128 331.551056,191.477722 327.569824,188.330719 
	C325.726532,186.873672 324.378174,184.790482 323.051270,182.775665 
	C323.955872,181.740677 324.614655,180.921173 325.534637,179.924835 
	C326.707855,178.601166 327.619873,177.454361 328.788269,176.146698 
	C329.217102,171.641312 327.095490,169.980469 322.743134,171.363937 
	C321.561188,171.260635 320.776093,171.156921 319.813080,170.764145 
	C317.694977,167.732941 313.127350,166.708038 314.405334,161.892029 
	C315.636749,160.609222 316.588470,159.479736 317.811340,158.230560 
	C319.059540,157.082840 320.036682,156.054810 321.280151,155.088455 
	C322.032501,155.371872 322.518494,155.593597 323.299744,156.009705 
	C324.068481,157.478668 324.541962,158.753265 324.612671,160.067596 
	C323.387726,160.126678 322.163574,159.809326 321.814972,160.225449 
	C320.515167,161.776993 319.502686,163.569214 318.382385,165.271118 
	C320.279480,165.796890 322.508820,167.222549 324.007477,166.669205 
	C327.605713,165.340622 325.723083,162.410355 325.318542,159.882172 
	C326.772125,160.168716 327.879578,160.558105 329.056091,161.262390 
	C329.428711,162.378952 329.732269,163.180588 329.742767,164.150818 
	C327.189575,168.364441 329.569855,169.836990 333.332703,170.779465 
	C335.455383,169.254379 337.246979,167.676468 339.319550,165.966202 
	C340.139832,165.211105 340.679169,164.588364 341.548401,164.017700 
	C347.509735,169.472519 353.016479,175.015854 358.851288,180.189224 
	C360.523773,181.672134 363.128021,182.816025 365.333649,182.866470 
	C376.823547,183.129227 388.323273,183.044632 399.817749,182.915573 
	C401.191895,182.900131 402.554779,181.879730 403.922882,181.325134 
z"/>
<path fill="#BF77E8" opacity="1.000000" stroke="none" 
	d="
M199.933319,184.082336 
	C200.365707,182.742294 200.401932,181.006683 201.287842,180.119476 
	C231.094269,150.269196 260.982483,120.500580 290.855835,90.717110 
	C294.030884,87.551628 297.187866,84.368065 300.672913,81.546417 
	C301.001373,95.906372 301.010162,109.912796 300.744568,124.034286 
	C299.971558,124.748138 299.472900,125.346939 298.688904,126.099609 
	C296.924316,127.814842 295.445038,129.376205 293.666504,131.082092 
	C291.237518,133.461090 289.107819,135.695557 286.698853,138.095642 
	C285.076233,139.854858 283.732819,141.448425 282.257629,143.083893 
	C282.125885,143.125778 282.042389,143.389374 281.738922,143.463303 
	C279.305359,145.731049 277.175293,147.924866 274.757996,150.158936 
	C273.971527,150.771378 273.472260,151.343552 272.682190,152.081177 
	C270.296112,154.342941 268.216888,156.455627 266.102325,158.532257 
	C261.111298,163.433701 261.142944,163.814484 267.020630,168.378357 
	C265.751129,172.205399 263.343658,173.210464 259.704651,173.045609 
	C254.682114,172.818130 249.288406,178.941040 251.556290,182.278656 
	C253.449799,185.065308 256.919922,188.390594 259.744141,188.439209 
	C262.118317,188.480072 266.712708,184.003159 266.566406,181.772751 
	C266.186066,175.974167 270.546173,173.730164 273.086182,169.732819 
	C276.901947,165.756897 280.513397,162.049271 284.437256,158.215317 
	C285.919006,156.759003 287.088348,155.429001 288.531128,153.965393 
	C289.907440,152.653702 291.010254,151.475616 292.420715,150.102539 
	C296.563721,147.860336 293.826721,144.687454 294.366150,141.859924 
	C296.189117,140.199646 297.497803,138.228867 299.329254,137.359879 
	C300.850555,136.638062 302.986877,137.212524 304.909363,137.565155 
	C304.983246,138.621307 304.998474,139.325058 304.600952,140.077942 
	C303.369415,140.154556 302.396973,139.910431 301.764893,140.267960 
	C300.573486,140.941895 298.678131,141.997055 298.710175,142.830917 
	C298.759460,144.113449 299.964783,146.038239 301.093719,146.400711 
	C302.237396,146.767899 304.655151,145.938385 305.122681,144.964615 
	C305.761108,143.634857 305.082458,141.672745 305.323303,139.926910 
	C307.131500,140.584198 308.584808,141.296295 310.043060,142.343079 
	C309.386261,143.787109 308.724518,144.896439 307.757996,146.144318 
	C306.649536,147.360657 305.845917,148.438461 304.729675,149.642761 
	C301.619171,150.540131 298.821259,151.310989 295.747192,152.164581 
	C294.976440,152.824097 294.481842,153.400894 293.694336,154.139420 
	C289.607056,158.222656 285.812714,162.144180 281.741272,166.155396 
	C280.974335,166.834564 280.484497,167.424057 279.711243,168.160217 
	C278.100739,169.877335 276.773712,171.447754 275.138062,173.198517 
	C275.146759,174.628128 275.464050,175.877396 275.967438,177.390320 
	C277.407501,178.818787 278.661407,179.983627 280.030090,181.411133 
	C280.515106,182.114288 280.885345,182.554794 281.112854,183.317047 
	C279.444061,185.154938 277.493988,186.442017 276.515167,188.253815 
	C275.597046,189.953278 274.995667,192.453003 275.579102,194.143600 
	C276.083130,195.604172 278.990540,197.701813 279.901367,197.315491 
	C285.461182,194.957245 287.195190,199.880142 290.040649,202.334167 
	C290.750214,202.946091 290.436493,205.427979 289.840271,206.696609 
	C289.101318,208.268951 287.762939,209.727737 286.338074,210.757874 
	C285.137909,211.625580 282.618652,212.654846 282.107239,212.155182 
	C279.495575,209.603561 275.148346,208.300781 276.229797,202.794296 
	C276.629852,200.757431 273.791534,197.740356 271.807404,195.810715 
	C271.281891,195.299637 268.289764,196.936172 266.712189,198.003403 
	C265.092621,199.099014 263.818146,200.704788 262.023651,202.044891 
	C260.216461,200.944611 258.636139,200.033356 257.365814,198.802277 
	C252.962570,194.534927 248.816589,189.989136 244.251953,185.908051 
	C242.584534,184.417282 240.038483,183.166550 237.861282,183.113251 
	C226.597397,182.837524 215.322830,182.947662 204.052841,183.033524 
	C202.677094,183.044022 201.306366,183.716599 199.933319,184.082336 
M284.063873,201.110794 
	C282.562683,201.932083 281.061493,202.753372 279.560303,203.574646 
	C280.471069,205.009674 281.086945,207.004425 282.391632,207.691711 
	C283.331146,208.186661 285.188599,206.939102 286.636627,206.468765 
	C286.011627,204.722809 285.386627,202.976837 284.063873,201.110794 
z"/>
<path fill="#B259E5" opacity="1.000000" stroke="none" 
	d="
M301.018951,123.919235 
	C301.010162,109.912796 301.001373,95.906372 300.986938,81.427681 
	C302.367157,81.327736 304.191833,81.260727 305.071655,82.139595 
	C315.042023,92.099190 324.789246,102.282059 334.754211,112.247185 
	C344.856964,122.350067 355.222900,132.189957 365.314941,142.303345 
	C375.863708,152.874466 386.215118,163.642380 396.672607,174.304840 
	C398.864990,176.540161 401.143677,178.690872 403.652710,181.102859 
	C402.554779,181.879730 401.191895,182.900131 399.817749,182.915573 
	C388.323273,183.044632 376.823547,183.129227 365.333649,182.866470 
	C363.128021,182.816025 360.523773,181.672134 358.851288,180.189224 
	C353.016479,175.015854 347.509735,169.472519 341.473236,163.668243 
	C340.091492,162.040054 339.114807,160.813416 337.979309,159.365326 
	C337.206055,158.780746 336.591614,158.417618 335.850464,157.799820 
	C335.218689,156.994614 334.713593,156.444077 334.054169,155.591766 
	C326.619843,148.154709 319.339844,141.019409 311.904663,133.593124 
	C310.238068,131.803253 308.801453,130.218079 307.196259,128.827469 
	C305.210236,127.106995 303.084381,125.547989 301.018951,123.919235 
z"/>
<path fill="#B259E5" opacity="1.000000" stroke="none" 
	d="
M200.033066,184.400787 
	C201.306366,183.716599 202.677094,183.044022 204.052841,183.033524 
	C215.322830,182.947662 226.597397,182.837524 237.861282,183.113251 
	C240.038483,183.166550 242.584534,184.417282 244.251953,185.908051 
	C248.816589,189.989136 252.962570,194.534927 257.365814,198.802277 
	C258.636139,200.033356 260.216461,200.944611 261.942566,202.388428 
	C262.603394,203.643982 262.760834,204.727875 263.381042,205.351517 
	C275.890076,217.930222 288.452209,230.456039 301.003723,242.992477 
	C300.993866,256.766449 300.984039,270.540405 300.950836,284.808838 
	C291.893921,276.529022 282.802032,267.813812 273.841766,258.965363 
	C262.965942,248.225250 252.161240,237.412277 241.398346,226.558884 
	C227.605331,212.649857 213.884659,198.669098 200.033066,184.400787 
z"/>
<path fill="#BF7BE7" opacity="1.000000" stroke="none" 
	d="
M370.134644,334.782440 
	C370.562592,329.884369 370.811218,325.407715 371.481018,320.994965 
	C371.879883,318.367340 372.681122,315.785736 376.424011,315.932373 
	C379.436310,316.050323 380.704712,317.142853 380.190002,320.188629 
	C378.735229,328.797333 377.423096,337.431458 375.859344,346.019958 
	C374.984283,350.825989 371.175629,350.669617 367.438873,350.511932 
	C363.874207,350.361511 363.277832,348.206146 363.134979,345.169006 
	C363.007446,342.457001 362.205109,339.776733 361.700531,337.082428 
	C361.109680,336.986938 360.518799,336.891449 359.927948,336.795959 
	C358.719879,341.005157 357.511810,345.214325 356.080566,350.201233 
	C353.521362,350.201233 350.282654,350.541229 347.187317,350.023712 
	C346.046234,349.832886 344.614685,347.720490 344.389343,346.312714 
	C343.057983,337.993652 342.584351,329.501190 340.728882,321.314850 
	C339.508148,315.929016 341.704742,315.651978 345.629150,315.998962 
	C346.448029,316.071350 347.265991,316.154358 348.049622,316.229156 
	C352.250671,324.090240 347.611847,333.730988 352.754944,341.260315 
	C353.348694,341.292084 353.942444,341.323883 354.536163,341.355682 
	C355.051758,338.279541 355.606415,335.209229 356.069366,332.125183 
	C356.387390,330.006897 356.525452,327.861694 356.840210,325.742798 
	C357.162170,323.575439 357.412537,321.420441 360.575317,321.570435 
	C363.858856,321.726135 364.057037,324.011963 364.394196,326.360931 
	C364.865417,329.644379 365.277130,332.940460 365.894409,336.197052 
	C366.189972,337.756348 366.899506,339.237244 367.421570,340.753632 
	C367.882019,340.798950 368.342468,340.844269 368.802917,340.889587 
	C369.246094,339.003296 369.689301,337.117035 370.134644,334.782440 
z"/>
<path fill="#BE7AE7" opacity="1.000000" stroke="none" 
	d="
M188.414551,319.676270 
	C190.062943,318.166504 191.577347,316.419617 193.310059,316.166290 
	C196.557114,315.691711 199.996048,316.512604 203.237411,316.019928 
	C209.370941,315.087616 213.459656,318.025665 215.603577,322.985565 
	C217.543060,327.472504 218.094818,332.402679 214.672699,337.111511 
	C213.566040,338.634277 213.968796,341.636902 214.430786,343.802643 
	C214.844452,345.742004 216.289322,347.461365 217.388596,349.478455 
	C208.076981,350.855347 208.069397,350.482880 205.782715,343.980316 
	C205.154205,342.192993 201.579559,340.572968 199.279221,340.460236 
	C196.346451,340.316559 195.361603,342.619354 196.504745,345.689362 
	C196.954788,346.897919 196.323380,348.509155 196.177444,350.009094 
	C194.995407,350.009094 193.678558,350.009094 192.361694,350.009094 
	C191.232941,350.009094 190.104187,350.009094 188.379089,350.009094 
	C188.379089,339.969910 188.379089,330.041595 188.414551,319.676270 
M201.494888,322.859283 
	C199.991379,323.645325 197.237061,324.387390 197.207596,325.225281 
	C197.098083,328.339172 196.956451,332.243683 198.672363,334.342529 
	C199.757263,335.669556 205.414841,335.417542 206.693329,333.905365 
	C208.475311,331.797699 208.473358,327.830109 208.318024,324.704010 
	C208.282867,323.996307 204.477890,323.475861 201.494888,322.859283 
z"/>
<path fill="#C07BE9" opacity="1.000000" stroke="none" 
	d="
M234.009079,349.889313 
	C228.496216,347.030029 226.571396,342.549408 227.102951,336.391296 
	C227.649734,330.056793 226.012497,323.397156 231.937576,318.403778 
	C236.970688,314.162140 251.475525,315.106079 255.240067,320.445831 
	C256.211212,321.823364 256.614044,323.803314 256.726288,325.542145 
	C256.950623,329.017120 256.557190,332.536560 256.847870,336.001648 
	C257.305573,341.457642 256.506256,346.236145 250.793884,349.301208 
	C244.779724,349.454681 239.394409,349.671997 234.009079,349.889313 
M243.225113,323.101990 
	C240.866409,323.880402 236.962921,321.273102 236.298096,325.596313 
	C235.549728,330.462860 235.365936,335.445923 235.371948,340.377747 
	C235.373428,341.591583 236.851074,343.565063 238.014389,343.891663 
	C245.219223,345.914215 248.817093,342.981995 248.817459,335.469604 
	C248.817566,333.149109 248.713470,330.823456 248.833450,328.509308 
	C249.010010,325.103790 247.817001,323.035889 243.225113,323.101990 
z"/>
<path fill="#BF7AE8" opacity="1.000000" stroke="none" 
	d="
M403.068665,316.296875 
	C412.274139,315.859589 412.154266,316.210571 413.227722,325.131500 
	C414.028900,331.789520 416.188049,338.281372 417.683502,344.860657 
	C418.037994,346.420197 418.156158,348.033508 418.396179,349.714325 
	C413.788727,350.719757 409.907562,351.638489 409.830841,345.218384 
	C409.821594,344.443848 407.639191,342.926514 406.669067,343.076874 
	C403.790588,343.522949 400.880920,344.357391 398.273987,345.633545 
	C397.407227,346.057831 397.420380,348.279572 397.002747,349.782135 
	C394.505676,349.782135 391.938171,349.782135 388.817322,349.782135 
	C391.230988,339.251678 393.576843,329.183777 395.832855,319.095825 
	C396.787567,314.826721 399.942810,316.209717 403.068665,316.296875 
M406.948090,327.650055 
	C406.013062,326.140778 405.078033,324.631531 404.143005,323.122253 
	C403.190674,324.231750 401.618866,325.235992 401.408966,326.471588 
	C400.898621,329.476227 400.736908,332.616547 401.038544,335.642029 
	C401.147400,336.734100 403.088654,338.554901 403.999420,338.444214 
	C405.401855,338.273743 407.577576,336.864685 407.745972,335.731537 
	C408.091797,333.404541 407.324615,330.912109 406.948090,327.650055 
z"/>
<path fill="#C07BE9" opacity="1.000000" stroke="none" 
	d="
M310.027802,349.858856 
	C305.009613,347.062683 302.537750,342.101013 304.304504,337.050842 
	C304.770844,335.717865 307.259857,334.285461 308.749512,334.357544 
	C310.085175,334.422150 311.719910,336.280640 312.499542,337.735352 
	C313.368591,339.356873 312.833740,342.111572 313.993011,343.090851 
	C315.175049,344.089294 317.840576,344.035736 319.536682,343.475037 
	C320.677765,343.097778 321.883240,341.083801 321.981934,339.723816 
	C322.294159,335.421143 322.056854,331.081116 322.115417,326.756683 
	C322.155273,323.816650 320.578613,323.055756 317.968903,323.292053 
	C315.166565,323.545807 312.349243,323.629181 309.542786,323.843719 
	C307.101990,324.030304 305.288452,323.119751 306.045197,320.546356 
	C306.534515,318.882416 308.175385,316.425903 309.460693,316.322662 
	C315.076355,315.871704 320.753876,316.045868 326.402313,316.214661 
	C328.854492,316.287964 330.198669,317.576508 330.064056,320.421326 
	C329.765533,326.728851 330.239746,333.109528 329.459564,339.342834 
	C329.045929,342.647766 326.668365,345.706909 324.359283,348.921631 
	C319.036743,349.263794 314.532257,349.561340 310.027802,349.858856 
z"/>
<path fill="#C07BE9" opacity="1.000000" stroke="none" 
	d="
M173.389603,340.340942 
	C171.238327,341.238922 169.156662,342.555115 166.917938,342.927582 
	C164.201660,343.379578 161.352814,343.034851 158.352997,343.034851 
	C158.110046,345.671051 157.915939,347.777527 157.698105,350.141266 
	C155.527832,350.141266 153.471970,350.141266 151.026474,350.141266 
	C151.026474,339.783447 150.935089,329.486938 151.163269,319.197449 
	C151.186920,318.130737 153.065674,316.263397 154.159576,316.205658 
	C159.301758,315.934296 164.517960,315.777039 169.607208,316.400177 
	C171.762970,316.664093 173.671921,318.943939 175.847626,321.090942 
	C175.660980,327.403595 175.319763,332.932831 174.978546,338.462036 
	C174.978546,338.462036 174.834824,338.853943 174.626251,339.086945 
	C174.417679,339.319946 174.065979,339.603394 174.065979,339.603394 
	C174.065979,339.603394 173.898544,339.906647 173.729202,340.048401 
	C173.559860,340.190186 173.389603,340.340942 173.389603,340.340942 
M158.023071,331.277313 
	C157.686066,334.608368 158.426422,337.809448 162.282089,337.638458 
	C164.820328,337.525909 169.532471,334.901672 169.413956,334.476044 
	C168.362366,330.698975 172.004410,326.296906 168.001190,323.060333 
	C167.883270,322.965027 167.679153,322.984924 167.528015,322.920929 
	C161.222260,320.250397 157.974579,322.804077 158.023071,331.277313 
z"/>
<path fill="#C07BE9" opacity="1.000000" stroke="none" 
	d="
M290.083221,346.505829 
	C289.465485,347.140167 288.847717,347.774475 287.593201,348.692505 
	C282.115387,348.978729 277.274384,348.981262 272.433350,348.983795 
	C268.304260,346.676880 267.183777,342.851379 267.180603,338.490387 
	C267.178345,335.344452 268.970001,334.066406 271.934906,334.055084 
	C275.275818,334.042328 275.686829,336.013519 275.186859,338.710266 
	C274.602356,341.863098 275.547546,344.013428 279.141998,344.016174 
	C282.403107,344.018677 285.096161,343.226318 285.249298,339.163788 
	C285.373749,335.861633 285.645935,332.564575 285.878754,329.267120 
	C286.259247,323.878113 284.451630,322.303101 279.201447,323.279755 
	C277.265045,323.639954 275.264374,323.647278 273.295868,323.844086 
	C270.737152,324.099915 269.155304,323.433136 269.212921,320.395142 
	C269.265076,317.643555 269.975616,315.904907 273.137115,315.988190 
	C279.225677,316.148621 285.317017,316.204071 291.693115,317.003723 
	C291.980621,324.813324 292.144409,331.927917 291.896545,339.028107 
	C291.808899,341.538727 290.716766,344.014282 290.083221,346.505829 
z"/>
<path fill="#BF77E8" opacity="1.000000" stroke="none" 
	d="
M430.177704,349.104553 
	C430.098480,339.735718 430.260010,330.355927 429.834991,321.002808 
	C429.632812,316.554199 431.225922,315.317047 435.627197,316.679260 
	C436.011871,324.102936 435.887390,330.973785 436.076233,337.835968 
	C436.116119,339.285614 437.303162,340.703644 437.961639,342.136261 
	C443.566437,344.342896 444.745575,343.688538 447.605591,338.833191 
	C448.316833,337.625763 451.154846,337.671112 453.015259,337.140625 
	C453.339081,338.448120 453.803467,339.740204 453.948334,341.067169 
	C454.102142,342.475830 453.952667,343.917572 453.992126,346.070801 
	C454.047302,347.278259 454.045929,347.759796 454.044556,348.241333 
	C454.044556,348.241333 454.173279,348.546478 453.646973,348.756531 
	C445.473022,349.012604 437.825348,349.058563 430.177704,349.104553 
z"/>
<path fill="#9D7AB1" opacity="1.000000" stroke="none" 
	d="
M437.974487,341.653442 
	C437.303162,340.703644 436.116119,339.285614 436.076233,337.835968 
	C435.887390,330.973785 436.011871,324.102936 436.056030,316.797424 
	C436.714935,317.864441 437.838867,319.354279 437.884583,320.876556 
	C438.087646,327.636169 437.981628,334.405090 437.974487,341.653442 
z"/>
<path fill="#9D7AB1" opacity="1.000000" stroke="none" 
	d="
M430.321106,349.459839 
	C437.825348,349.058563 445.473022,349.012604 453.593750,348.913330 
	C453.810669,349.263214 453.553436,350.018921 453.298370,350.018188 
	C445.686951,349.996460 438.075775,349.899902 430.321106,349.459839 
z"/>
<path fill="#9D7AB1" opacity="1.000000" stroke="none" 
	d="
M290.442871,346.531128 
	C290.716766,344.014282 291.808899,341.538727 291.896545,339.028107 
	C292.144409,331.927917 291.980621,324.813324 292.013489,317.213501 
	C292.517456,317.311249 293.398956,317.903168 293.394318,318.488037 
	C293.330597,326.529114 293.241272,334.573334 292.894409,342.605438 
	C292.836365,343.950043 291.531372,345.240814 290.442871,346.531128 
z"/>
<path fill="#9D7AB1" opacity="1.000000" stroke="none" 
	d="
M175.325760,338.422302 
	C175.319763,332.932831 175.660980,327.403595 175.995621,321.400604 
	C178.970917,325.043213 178.804230,334.249146 175.325760,338.422302 
z"/>
<path fill="#9D7AB1" opacity="1.000000" stroke="none" 
	d="
M234.309357,350.184387 
	C239.394409,349.671997 244.779724,349.454681 250.500961,349.439240 
	C245.427795,349.920563 240.018707,350.200012 234.309357,350.184387 
z"/>
<path fill="#9D7AB1" opacity="1.000000" stroke="none" 
	d="
M272.623352,349.279907 
	C277.274384,348.981262 282.115387,348.978729 287.412170,348.977478 
	C282.968933,352.182678 277.923981,351.707703 272.623352,349.279907 
z"/>
<path fill="#9D7AB1" opacity="1.000000" stroke="none" 
	d="
M310.328430,350.148590 
	C314.532257,349.561340 319.036743,349.263794 324.047058,349.005310 
	C320.207397,352.462952 315.363312,350.901947 310.328430,350.148590 
z"/>
<path fill="#9D7AB1" opacity="1.000000" stroke="none" 
	d="
M173.351791,340.512207 
	C173.389603,340.340942 173.559860,340.190186 173.578278,340.133362 
	C173.502457,340.278839 173.408218,340.481140 173.351791,340.512207 
z"/>
<path fill="#9D7AB1" opacity="1.000000" stroke="none" 
	d="
M454.220459,348.047974 
	C454.045929,347.759796 454.047302,347.278259 454.003296,346.441010 
	C454.104095,346.675079 454.250244,347.264862 454.220459,348.047974 
z"/>
<path fill="#9D7AB1" opacity="1.000000" stroke="none" 
	d="
M174.190643,339.580994 
	C174.065979,339.603394 174.417679,339.319946 174.466156,339.220825 
	C174.536621,339.307892 174.470184,339.453522 174.190643,339.580994 
z"/>
<path fill="#FBFAFC" opacity="1.000000" stroke="none" 
	d="
M301.370514,243.006180 
	C288.452209,230.456039 275.890076,217.930222 263.381042,205.351517 
	C262.760834,204.727875 262.603394,203.643982 262.311584,202.430847 
	C263.818146,200.704788 265.092621,199.099014 266.712189,198.003403 
	C268.289764,196.936172 271.281891,195.299637 271.807404,195.810715 
	C273.791534,197.740356 276.629852,200.757431 276.229797,202.794296 
	C275.148346,208.300781 279.495575,209.603561 282.107239,212.155182 
	C282.618652,212.654846 285.137909,211.625580 286.338074,210.757874 
	C287.762939,209.727737 289.101318,208.268951 289.840271,206.696609 
	C290.436493,205.427979 290.750214,202.946091 290.040649,202.334167 
	C287.195190,199.880142 285.461182,194.957245 279.901367,197.315491 
	C278.990540,197.701813 276.083130,195.604172 275.579102,194.143600 
	C274.995667,192.453003 275.597046,189.953278 276.515167,188.253815 
	C277.493988,186.442017 279.444061,185.154938 281.388733,183.318481 
	C282.363617,182.996857 282.919861,182.995544 283.605743,183.340393 
	C289.191193,189.649780 294.576721,195.681656 300.220978,201.460800 
	C300.735901,201.988007 303.357178,201.350250 304.240143,200.481171 
	C310.040863,194.771698 315.632660,188.849991 321.545471,182.997681 
	C322.133972,182.995590 322.469696,182.993378 322.805420,182.991180 
	C324.378174,184.790482 325.726532,186.873672 327.569824,188.330719 
	C331.551056,191.477722 331.530945,192.406128 327.964111,195.817474 
	C322.466034,201.075851 317.412811,206.803528 311.850555,211.988464 
	C309.863281,213.840927 306.890686,214.602051 304.464355,216.025833 
	C300.791321,218.181168 297.202759,220.480515 293.613190,222.697128 
	C299.497559,232.169327 303.015259,233.112152 306.355835,226.668427 
	C306.223785,226.263916 306.191986,226.288895 306.191986,226.288910 
	C307.144684,225.839264 308.940125,225.360977 308.925964,224.944214 
	C308.626678,216.141266 316.569244,213.173874 321.051758,207.868530 
	C324.787231,203.447311 329.484283,199.845932 333.315216,195.493958 
	C334.655090,193.971848 335.161438,191.305389 335.211243,189.142227 
	C335.321014,184.373795 339.109467,182.435699 342.061646,180.191330 
	C342.843231,179.597122 345.941620,181.879227 347.866180,183.025421 
	C348.975555,183.686127 350.259644,184.538620 350.750427,185.627045 
	C351.332520,186.918015 351.803650,189.422485 351.180664,189.894974 
	C348.252289,192.115875 347.004272,196.714706 341.664948,195.802750 
	C338.259369,195.221085 337.140930,198.016953 339.526459,200.807541 
	C341.591370,203.222992 340.986481,204.793945 339.012024,206.719223 
	C328.767517,216.708405 318.594666,226.771057 308.375671,236.786484 
	C306.208313,238.910645 303.952423,240.944458 301.370514,243.006180 
z"/>
<path fill="#FBFAFC" opacity="1.000000" stroke="none" 
	d="
M312.059845,133.884109 
	C319.339844,141.019409 326.619843,148.154709 333.789856,155.757477 
	C334.445618,156.834808 335.211395,157.444656 335.977142,158.054489 
	C336.591614,158.417618 337.206055,158.780746 337.940094,159.793213 
	C338.385986,162.327881 338.712280,164.213226 339.038574,166.098557 
	C337.246979,167.676468 335.455383,169.254379 333.330872,170.408752 
	C332.010620,167.984222 331.023224,165.983215 330.035858,163.982224 
	C329.732269,163.180588 329.428711,162.378952 329.055786,160.892761 
	C328.006317,158.387833 327.110443,156.513855 326.003296,154.774353 
	C325.581024,154.110931 324.674438,153.755814 323.988556,153.260178 
	C323.660522,154.111893 323.332489,154.963608 323.004456,155.815323 
	C322.518494,155.593597 322.032501,155.371872 321.073120,154.822357 
	C316.741516,154.599258 316.022797,155.505035 317.540222,158.350250 
	C316.588470,159.479736 315.636749,160.609222 314.018494,161.885498 
	C310.044067,162.419662 310.399109,164.859833 311.933014,166.109421 
	C314.397858,168.117371 315.179596,172.896637 319.917450,171.523651 
	C319.981995,171.504959 319.968231,171.216034 319.990997,171.053223 
	C320.776093,171.156921 321.561188,171.260635 322.880585,171.637344 
	C325.120544,173.376083 326.826202,174.841812 328.531860,176.307556 
	C327.619873,177.454361 326.707855,178.601166 325.117615,179.888306 
	C322.020294,179.427017 319.215363,179.631393 318.614685,175.991653 
	C318.509094,175.351791 315.619995,175.171280 313.716797,174.680389 
	C311.991913,173.369720 310.566589,172.157303 309.419861,170.794495 
	C310.854614,166.850891 309.097687,165.094727 304.734039,165.798248 
	C302.073669,163.097260 300.466614,164.922485 298.788818,166.603973 
	C294.292236,171.110428 289.771851,175.593140 284.846222,180.061462 
	C282.926117,180.407913 281.420746,180.778198 279.915344,181.148468 
	C278.661407,179.983627 277.407501,178.818787 276.290741,177.227844 
	C278.434357,174.935349 279.043579,173.431335 275.446655,173.018173 
	C276.773712,171.447754 278.100739,169.877335 279.718750,168.507782 
	C280.505463,169.328537 281.001221,169.948425 281.497009,170.568329 
	C281.670807,169.067459 281.844574,167.566574 282.018372,166.065704 
	C285.812714,162.144180 289.607056,158.222656 293.879791,154.389801 
	C297.622498,155.561951 296.758331,153.777039 296.023315,152.081848 
	C298.821259,151.310989 301.619171,150.540131 304.813995,149.934601 
	C308.623566,150.657883 309.925293,149.672440 311.359375,145.316589 
	C310.202148,145.558533 309.132477,145.782150 308.062805,146.005783 
	C308.724518,144.896439 309.386261,143.787109 310.357086,142.294220 
	C310.100372,140.432831 309.891479,138.571884 308.851471,137.602982 
	C308.072662,136.877411 306.223419,137.300888 304.850769,137.212753 
	C302.986877,137.212524 300.850555,136.638062 299.329254,137.359879 
	C297.497803,138.228867 296.189117,140.199646 293.989136,141.892807 
	C288.507965,144.176041 292.734741,147.594589 292.113098,150.297546 
	C291.010254,151.475616 289.907440,152.653702 288.122192,153.938721 
	C284.398743,153.983719 283.818268,155.820435 284.124847,158.341644 
	C280.513397,162.049271 276.901947,165.756897 272.733582,169.727570 
	C270.465942,169.328903 268.755249,168.667191 267.044525,168.005478 
	C261.142944,163.814484 261.111298,163.433701 266.102325,158.532257 
	C268.216888,156.455627 270.296112,154.342941 272.736755,152.423645 
	C273.815979,152.937012 274.549835,153.273407 275.283691,153.609787 
	C275.204193,152.446091 275.124695,151.282394 275.045227,150.118683 
	C277.175293,147.924866 279.305359,145.731049 281.739319,143.793488 
	C282.599274,144.636093 283.155365,145.222443 283.711426,145.808807 
	C284.088440,145.381317 284.465485,144.953842 284.842529,144.526367 
	C284.024811,144.031586 283.207123,143.536789 282.389404,143.041992 
	C283.732819,141.448425 285.076233,139.854858 286.745483,138.421173 
	C290.581726,140.798309 291.335571,136.482620 293.559723,135.606552 
	C294.207550,135.351379 293.858093,132.564133 293.965759,130.937561 
	C295.445038,129.376205 296.924316,127.814842 298.856384,126.421509 
	C301.636292,128.649597 303.997803,130.672379 306.279205,132.781860 
	C308.009796,134.382050 309.607361,136.253113 312.059845,133.884109 
z"/>
<path fill="#F9F6FB" opacity="1.000000" stroke="none" 
	d="
M306.429688,225.903870 
	C306.191986,226.288895 306.223785,226.263916 306.234528,226.249115 
	C304.103699,226.381165 301.962128,226.528015 299.820557,226.674881 
	C299.932129,225.105530 299.545959,223.209061 300.299896,222.061890 
	C301.007172,220.985718 302.987671,220.058960 304.289581,220.195404 
	C307.629028,220.545380 307.254791,223.105515 306.429688,225.903870 
z"/>
<path fill="#F9F6FB" opacity="1.000000" stroke="none" 
	d="
M324.972412,159.985016 
	C325.723083,162.410355 327.605713,165.340622 324.007477,166.669205 
	C322.508820,167.222549 320.279480,165.796890 318.382385,165.271118 
	C319.502686,163.569214 320.515167,161.776993 321.814972,160.225449 
	C322.163574,159.809326 323.387726,160.126678 324.600342,160.058411 
	C324.990723,160.009521 324.972412,159.985016 324.972412,159.985016 
z"/>
<path fill="#FBFAFC" opacity="1.000000" stroke="none" 
	d="
M319.813080,170.764145 
	C319.968231,171.216034 319.981995,171.504959 319.917450,171.523651 
	C315.179596,172.896637 314.397858,168.117371 311.933014,166.109421 
	C310.399109,164.859833 310.044067,162.419662 313.738831,162.038834 
	C313.127350,166.708038 317.694977,167.732941 319.813080,170.764145 
z"/>
<path fill="#FBFAFC" opacity="1.000000" stroke="none" 
	d="
M314.016357,174.778641 
	C315.619995,175.171280 318.509094,175.351791 318.614685,175.991653 
	C319.215363,179.631393 322.020294,179.427017 324.856384,180.065170 
	C324.614655,180.921173 323.955872,181.740677 323.051270,182.775665 
	C322.469696,182.993378 322.133972,182.995590 321.315918,182.735748 
	C318.561188,179.908691 316.288757,177.343658 314.016357,174.778641 
z"/>
<path fill="#FBFAFC" opacity="1.000000" stroke="none" 
	d="
M323.299744,156.009705 
	C323.332489,154.963608 323.660522,154.111893 323.988556,153.260178 
	C324.674438,153.755814 325.581024,154.110931 326.003296,154.774353 
	C327.110443,156.513855 328.006317,158.387833 328.986725,160.577850 
	C327.879578,160.558105 326.772125,160.168716 325.318542,159.882172 
	C324.972412,159.985016 324.990723,160.009521 325.003052,160.018692 
	C324.541962,158.753265 324.068481,157.478668 323.299744,156.009705 
z"/>
<path fill="#FBFAFC" opacity="1.000000" stroke="none" 
	d="
M328.788269,176.146698 
	C326.826202,174.841812 325.120544,173.376083 323.277435,171.636932 
	C327.095490,169.980469 329.217102,171.641312 328.788269,176.146698 
z"/>
<path fill="#FBFAFC" opacity="1.000000" stroke="none" 
	d="
M329.742767,164.150818 
	C331.023224,165.983215 332.010620,167.984222 332.999817,170.355927 
	C329.569855,169.836990 327.189575,168.364441 329.742767,164.150818 
z"/>
<path fill="#FBFAFC" opacity="1.000000" stroke="none" 
	d="
M317.811340,158.230560 
	C316.022797,155.505035 316.741516,154.599258 320.806732,154.760681 
	C320.036682,156.054810 319.059540,157.082840 317.811340,158.230560 
z"/>
<path fill="#FBFAFC" opacity="1.000000" stroke="none" 
	d="
M339.319519,165.966202 
	C338.712280,164.213226 338.385986,162.327881 338.098877,160.014648 
	C339.114807,160.813416 340.091492,162.040054 341.143311,163.616150 
	C340.679169,164.588364 340.139832,165.211105 339.319519,165.966202 
z"/>
<path fill="#FBFAFC" opacity="1.000000" stroke="none" 
	d="
M267.020630,168.378357 
	C268.755249,168.667191 270.465942,169.328903 272.529266,169.995865 
	C270.546173,173.730164 266.186066,175.974167 266.566406,181.772751 
	C266.712708,184.003159 262.118317,188.480072 259.744141,188.439209 
	C256.919922,188.390594 253.449799,185.065308 251.556290,182.278656 
	C249.288406,178.941040 254.682114,172.818130 259.704651,173.045609 
	C263.343658,173.210464 265.751129,172.205399 267.020630,168.378357 
z"/>
<path fill="#FBFAFC" opacity="1.000000" stroke="none" 
	d="
M311.904663,133.593124 
	C309.607361,136.253113 308.009796,134.382050 306.279205,132.781860 
	C303.997803,130.672379 301.636292,128.649597 299.141724,126.267639 
	C299.472900,125.346939 299.971558,124.748138 300.744568,124.034286 
	C303.084381,125.547989 305.210236,127.106995 307.196259,128.827469 
	C308.801453,130.218079 310.238068,131.803253 311.904663,133.593124 
z"/>
<path fill="#F9F6FB" opacity="1.000000" stroke="none" 
	d="
M304.968445,139.981720 
	C305.082458,141.672745 305.761108,143.634857 305.122681,144.964615 
	C304.655151,145.938385 302.237396,146.767899 301.093719,146.400711 
	C299.964783,146.038239 298.759460,144.113449 298.710175,142.830917 
	C298.678131,141.997055 300.573486,140.941895 301.764893,140.267960 
	C302.396973,139.910431 303.369415,140.154556 304.588440,140.067444 
	C304.988708,140.007767 304.968445,139.981720 304.968445,139.981720 
z"/>
<path fill="#F9F6FB" opacity="1.000000" stroke="none" 
	d="
M284.412750,201.170837 
	C285.386627,202.976837 286.011627,204.722809 286.636627,206.468765 
	C285.188599,206.939102 283.331146,208.186661 282.391632,207.691711 
	C281.086945,207.004425 280.471069,205.009674 279.560303,203.574646 
	C281.061493,202.753372 282.562683,201.932083 284.412750,201.170837 
z"/>
<path fill="#FBFAFC" opacity="1.000000" stroke="none" 
	d="
M293.666504,131.082092 
	C293.858093,132.564133 294.207550,135.351379 293.559723,135.606552 
	C291.335571,136.482620 290.581726,140.798309 287.024689,138.255524 
	C289.107819,135.695557 291.237518,133.461090 293.666504,131.082092 
z"/>
<path fill="#FBFAFC" opacity="1.000000" stroke="none" 
	d="
M304.909363,137.565155 
	C306.223419,137.300888 308.072662,136.877411 308.851471,137.602982 
	C309.891479,138.571884 310.100372,140.432831 310.352173,141.959534 
	C308.584808,141.296295 307.131500,140.584198 305.323303,139.926910 
	C304.968445,139.981720 304.988708,140.007767 305.001221,140.018280 
	C304.998474,139.325058 304.983246,138.621307 304.909363,137.565155 
z"/>
<path fill="#FBFAFC" opacity="1.000000" stroke="none" 
	d="
M292.420715,150.102539 
	C292.734741,147.594589 288.507965,144.176041 293.701172,142.059296 
	C293.826721,144.687454 296.563721,147.860336 292.420715,150.102539 
z"/>
<path fill="#FBFAFC" opacity="1.000000" stroke="none" 
	d="
M307.757996,146.144318 
	C309.132477,145.782150 310.202148,145.558533 311.359375,145.316589 
	C309.925293,149.672440 308.623566,150.657883 305.126587,149.808105 
	C305.845917,148.438461 306.649536,147.360657 307.757996,146.144318 
z"/>
<path fill="#FBFAFC" opacity="1.000000" stroke="none" 
	d="
M275.138062,173.198517 
	C279.043579,173.431335 278.434357,174.935349 276.104614,176.964203 
	C275.464050,175.877396 275.146759,174.628128 275.138062,173.198517 
z"/>
<path fill="#FBFAFC" opacity="1.000000" stroke="none" 
	d="
M280.030090,181.411133 
	C281.420746,180.778198 282.926117,180.407913 284.726990,180.383423 
	C284.507019,181.484222 283.991547,182.239227 283.476105,182.994232 
	C282.919861,182.995544 282.363617,182.996857 281.531494,182.996735 
	C280.885345,182.554794 280.515106,182.114288 280.030090,181.411133 
z"/>
<path fill="#FBFAFC" opacity="1.000000" stroke="none" 
	d="
M281.741272,166.155396 
	C281.844574,167.566574 281.670807,169.067459 281.497009,170.568329 
	C281.001221,169.948425 280.505463,169.328537 280.002197,168.361084 
	C280.484497,167.424057 280.974335,166.834564 281.741272,166.155396 
z"/>
<path fill="#FBFAFC" opacity="1.000000" stroke="none" 
	d="
M284.437256,158.215332 
	C283.818268,155.820435 284.398743,153.983719 287.848724,154.072327 
	C287.088348,155.429001 285.919006,156.759003 284.437256,158.215332 
z"/>
<path fill="#FBFAFC" opacity="1.000000" stroke="none" 
	d="
M274.757996,150.158951 
	C275.124695,151.282394 275.204193,152.446091 275.283691,153.609787 
	C274.549835,153.273407 273.815979,152.937012 273.027557,152.258179 
	C273.472260,151.343552 273.971527,150.771378 274.757996,150.158951 
z"/>
<path fill="#FBFAFC" opacity="1.000000" stroke="none" 
	d="
M295.747192,152.164581 
	C296.758331,153.777039 297.622498,155.561951 294.172729,154.228088 
	C294.481842,153.400894 294.976440,152.824097 295.747192,152.164581 
z"/>
<path fill="#FBFAFC" opacity="1.000000" stroke="none" 
	d="
M335.850464,157.799820 
	C335.211395,157.444656 334.445618,156.834808 333.944183,156.059250 
	C334.713593,156.444077 335.218689,156.994614 335.850464,157.799820 
z"/>
<path fill="#FBFAFC" opacity="1.000000" stroke="none" 
	d="
M201.951538,322.864258 
	C204.477890,323.475861 208.282867,323.996307 208.318024,324.704010 
	C208.473358,327.830109 208.475311,331.797699 206.693329,333.905365 
	C205.414841,335.417542 199.757263,335.669556 198.672363,334.342529 
	C196.956451,332.243683 197.098083,328.339172 197.207596,325.225281 
	C197.237061,324.387390 199.991379,323.645325 201.951538,322.864258 
z"/>
<path fill="#F9F6FB" opacity="1.000000" stroke="none" 
	d="
M243.664215,323.100708 
	C247.817001,323.035889 249.010010,325.103790 248.833450,328.509308 
	C248.713470,330.823456 248.817566,333.149109 248.817459,335.469604 
	C248.817093,342.981995 245.219223,345.914215 238.014389,343.891663 
	C236.851074,343.565063 235.373428,341.591583 235.371948,340.377747 
	C235.365936,335.445923 235.549728,330.462860 236.298096,325.596313 
	C236.962921,321.273102 240.866409,323.880402 243.664215,323.100708 
z"/>
<path fill="#F9F6FB" opacity="1.000000" stroke="none" 
	d="
M406.981812,328.068909 
	C407.324615,330.912109 408.091797,333.404541 407.745972,335.731537 
	C407.577576,336.864685 405.401855,338.273743 403.999420,338.444214 
	C403.088654,338.554901 401.147400,336.734100 401.038544,335.642029 
	C400.736908,332.616547 400.898621,329.476227 401.408966,326.471588 
	C401.618866,325.235992 403.190674,324.231750 404.143005,323.122253 
	C405.078033,324.631531 406.013062,326.140778 406.981812,328.068909 
z"/>
<path fill="#FBFAFC" opacity="1.000000" stroke="none" 
	d="
M158.039200,330.824707 
	C157.974579,322.804077 161.222260,320.250397 167.528015,322.920929 
	C167.679153,322.984924 167.883270,322.965027 168.001190,323.060333 
	C172.004410,326.296906 168.362366,330.698975 169.413956,334.476044 
	C169.532471,334.901672 164.820328,337.525909 162.282089,337.638458 
	C158.426422,337.809448 157.686066,334.608368 158.039200,330.824707 
z"/>
<path fill="#BF77E8" opacity="1.000000" stroke="none" 
	d="
M283.605743,183.340393 
	C283.991547,182.239227 284.507019,181.484222 285.141724,180.407257 
	C289.771851,175.593140 294.292236,171.110428 298.788818,166.603973 
	C300.466614,164.922485 302.073669,163.097260 304.840576,166.111374 
	C306.532410,168.040878 307.836823,169.492874 309.141235,170.944870 
	C310.566589,172.157303 311.991913,173.369720 313.716797,174.680389 
	C316.288757,177.343658 318.561188,179.908691 321.063110,182.735626 
	C315.632660,188.849991 310.040863,194.771698 304.240143,200.481171 
	C303.357178,201.350250 300.735901,201.988007 300.220978,201.460800 
	C294.576721,195.681656 289.191193,189.649780 283.605743,183.340393 
z"/>
<path fill="#FBFAFC" opacity="1.000000" stroke="none" 
	d="
M309.419861,170.794495 
	C307.836823,169.492874 306.532410,168.040878 305.121460,166.275757 
	C309.097687,165.094727 310.854614,166.850891 309.419861,170.794495 
z"/>
<path fill="#FBFAFC" opacity="1.000000" stroke="none" 
	d="
M282.257629,143.083893 
	C283.207123,143.536789 284.024811,144.031586 284.842529,144.526367 
	C284.465485,144.953842 284.088440,145.381317 283.711426,145.808807 
	C283.155365,145.222443 282.599274,144.636093 282.042786,143.719543 
	C282.042389,143.389374 282.125885,143.125778 282.257629,143.083893 
z"/>
</svg>